<?xml version="1.0" standalone="no"?>
<!DOCTYPE svg PUBLIC "-//W3C//DTD SVG 20010904//EN"
 "http://www.w3.org/TR/2001/REC-SVG-20010904/DTD/svg10.dtd">
<svg version="1.0" xmlns="http://www.w3.org/2000/svg"
 width="720.000000pt" height="193.000000pt" viewBox="0 0 720.000000 193.000000"
 preserveAspectRatio="xMidYMid meet">
<metadata>
Created by potrace 1.13, written by Peter Selinger 2001-2015
</metadata>
<g transform="translate(0.000000,193.000000) scale(0.100000,-0.100000)"
fill="#000000" stroke="none">
<path d="M0 975 l0 -955 3600 0 3600 0 0 95 0 95 -1668 0 -1669 0 -45 53 c-25
28 -73 84 -107 124 -46 54 -67 71 -82 68 -17 -4 -19 -2 -8 11 10 12 7 20 -16
44 -15 16 -33 27 -38 23 -6 -3 -7 -1 -3 6 8 13 -71 108 -86 103 -5 -1 -7 1 -4
6 3 5 -13 31 -35 58 -48 58 -66 76 -54 54 5 -9 4 -12 -1 -7 -5 5 -9 12 -9 16
0 16 -178 220 -187 215 -4 -3 -7 -1 -6 4 5 16 -62 93 -74 86 -7 -4 -8 -2 -4 5
9 14 -102 143 -117 134 -6 -3 -7 -1 -3 6 9 14 -151 204 -165 196 -5 -4 -7 0
-4 7 3 7 -12 31 -33 53 -21 22 -55 61 -76 87 -21 26 -43 45 -49 41 -5 -3 -7
-1 -3 5 3 6 -6 24 -22 41 -23 25 -30 29 -42 19 -12 -11 -12 -10 -2 3 9 13 -2
31 -69 110 -45 52 -91 106 -102 122 l-21 27 -1198 0 -1198 0 0 -955z"/>
<path d="M3693 1033 c-10 -3 -13 -39 -13 -129 0 -117 1 -124 20 -124 19 0 20
7 20 92 0 50 3 89 6 86 3 -3 15 -43 27 -89 20 -77 24 -84 47 -84 23 0 27 7 47
84 12 46 24 86 27 89 3 3 6 -36 6 -86 0 -85 1 -92 20 -92 19 0 20 7 20 124 0
116 -1 125 -20 131 -43 14 -58 -2 -76 -80 -10 -41 -21 -75 -24 -75 -3 0 -14
33 -24 74 -19 81 -37 98 -83 79z"/>
<path d="M4311 1027 c-6 -6 -11 -19 -11 -29 0 -10 -6 -28 -12 -39 -10 -17 -10
-23 0 -26 7 -3 12 -25 12 -59 0 -77 11 -94 61 -94 33 0 40 3 37 17 -2 10 -12
18 -23 18 -17 0 -20 8 -23 56 -3 50 0 57 18 62 26 7 26 27 0 34 -14 4 -20 14
-20 33 0 30 -21 45 -39 27z"/>
<path d="M5190 995 c0 -41 -2 -46 -17 -40 -44 19 -74 17 -97 -4 -42 -39 -41
-125 1 -157 23 -17 75 -18 92 -1 11 10 14 10 18 0 3 -7 13 -13 24 -13 19 0 19
7 17 127 -3 112 -5 128 -20 131 -15 3 -18 -4 -18 -43z"/>
<path d="M5712 1030 c-28 -12 -44 -52 -33 -83 10 -24 34 -40 96 -59 33 -11 40
-18 40 -38 0 -22 -5 -25 -37 -28 -30 -3 -40 1 -54 22 -20 32 -54 35 -54 6 0
-12 11 -32 25 -45 19 -20 34 -25 73 -25 64 0 102 28 102 74 0 40 -21 61 -86
83 -55 18 -68 31 -52 50 17 20 66 16 78 -7 13 -25 50 -27 50 -2 -1 50 -80 79
-148 52z"/>
<path d="M6706 1025 c-8 -21 -8 -208 0 -229 3 -9 15 -16 25 -16 16 0 19 8 19
56 0 67 13 94 44 94 28 0 36 -21 36 -97 0 -46 3 -53 20 -53 13 0 22 9 26 26
10 39 -3 124 -22 145 -18 20 -69 26 -79 9 -13 -21 -24 -8 -27 32 -3 45 -29 65
-42 33z"/>
<path d="M3976 955 c-10 -28 -6 -119 7 -145 14 -27 63 -39 94 -22 11 7 23 6
34 -1 10 -6 21 -9 24 -5 10 10 7 170 -4 181 -17 17 -31 -4 -31 -48 0 -52 -13
-90 -33 -98 -29 -11 -42 11 -47 80 -4 52 -9 69 -21 71 -9 2 -19 -4 -23 -13z"/>
<path d="M4515 947 c-3 -12 -5 -54 -3 -92 3 -62 5 -70 23 -70 17 0 21 8 25 60
6 69 13 85 41 85 16 0 19 -7 19 -52 0 -72 9 -98 31 -98 11 0 19 6 20 13 8 124
11 137 38 137 25 0 31 -19 31 -91 0 -51 2 -59 19 -59 25 0 31 19 31 91 0 46
-5 64 -20 79 -22 22 -51 26 -79 10 -12 -6 -29 -5 -49 2 -23 9 -37 9 -56 0 -16
-7 -28 -8 -31 -2 -11 18 -35 10 -40 -13z"/>
<path d="M4863 952 c-75 -59 -36 -172 59 -172 55 0 88 34 88 92 0 24 -6 50
-13 59 -31 40 -96 51 -134 21z"/>
<path d="M5304 960 c-25 -10 -39 -39 -25 -53 5 -5 20 -1 39 13 20 15 37 20 51
15 30 -9 26 -34 -6 -41 -87 -19 -111 -41 -90 -84 9 -19 22 -26 50 -28 21 -2
44 2 52 8 10 8 19 8 34 -2 31 -19 38 -1 32 80 -5 57 -11 77 -26 88 -21 15 -78
18 -111 4z"/>
<path d="M5936 945 c-36 -34 -37 -105 -1 -140 41 -42 145 -30 145 15 0 24 -22
26 -40 5 -23 -28 -80 -13 -80 22 0 9 16 13 54 13 66 0 84 16 67 59 -23 54
-100 68 -145 26z"/>
<path d="M6164 960 c-25 -10 -39 -39 -25 -53 5 -5 20 -1 39 13 32 23 72 21 72
-5 0 -14 -7 -17 -65 -30 -16 -4 -36 -11 -42 -17 -16 -13 -17 -60 -1 -76 15
-15 80 -16 95 -1 8 8 17 7 32 -2 31 -20 38 -3 32 79 -5 57 -11 77 -26 88 -21
15 -78 18 -111 4z"/>
<path d="M6535 958 c-33 -18 -45 -40 -45 -85 0 -61 32 -93 94 -93 36 0 48 5
65 26 16 21 18 30 10 40 -9 11 -17 9 -41 -11 -34 -29 -38 -30 -62 -12 -21 15
-24 70 -6 92 16 19 54 19 70 0 18 -21 40 -19 40 4 0 41 -77 66 -125 39z"/>
</g>
</svg>
